<svg id="Capa_1" enable-background="new 0 0 511.973 511.973" height="512" viewBox="0 0 511.973 511.973" width="512" xmlns="http://www.w3.org/2000/svg"><g><g><path d="m399.052 483.62c-118.997 12.85-237.993 12.85-356.99 0-13.678-1.477-24.47-12.352-25.686-26.055-11.89-134.025-11.89-268.05 0-402.074 1.216-13.704 12.007-24.578 25.686-26.055 118.997-12.85 237.993-12.85 356.99 0 13.678 1.477 24.47 12.352 25.686 26.056 11.889 134.025 11.889 268.049 0 402.074-1.216 13.702-12.008 24.577-25.686 26.054z" fill="#665e66"/><path d="m62.019 485.645c-6.655-.63-13.311-1.312-19.966-2.026-13.678-1.48-24.469-12.355-25.677-26.055-11.893-134.031-11.893-268.051 0-402.071 1.207-13.71 11.998-24.585 25.677-26.065 6.655-.714 13.311-1.396 19.966-2.026-7.999 4.713-13.563 13.059-14.423 22.779-12.208 137.568-12.208 275.126 0 412.684.86 9.732 6.424 18.067 14.423 22.78z" fill="#544f57"/><g><path d="m399.944 195.28c-.002 0 .001 0-.001 0-29.762 0-54.803-1.397-74.314-3.108-12.026-1.055-19.556-13.505-14.946-24.662 12.789-30.95 28.578-61.523 47.101-91.176 12.608-20.184 24.78-37.196 35.072-50.581 7.178-9.335 21.221-9.338 28.399-.003 10.242 13.318 22.348 30.235 34.894 50.294 18.428 29.466 34.158 59.847 46.926 90.607 4.635 11.167-2.923 23.635-14.968 24.694-29.742 2.614-59.3 3.935-88.163 3.935z" fill="#dd636e"/></g><g><g fill="#86f1a7"><path d="m72.006 57.498c-9.254 0-16.756 7.502-16.756 16.756v37.701c0 9.254 7.502 16.756 16.756 16.756 9.254 0 16.756-7.502 16.756-16.756v-37.701c0-9.254-7.502-16.756-16.756-16.756z"/><path d="m128.386 57.498c-9.254 0-16.756 7.502-16.756 16.756v37.701c0 9.254 7.502 16.756 16.756 16.756 9.254 0 16.756-7.502 16.756-16.756v-37.701c0-9.254-7.502-16.756-16.756-16.756z"/><path d="m184.766 57.498c-9.254 0-16.756 7.502-16.756 16.756v37.701c0 9.254 7.502 16.756 16.756 16.756 9.254 0 16.756-7.502 16.756-16.756v-37.701c0-9.254-7.502-16.756-16.756-16.756z"/></g></g><g><g><path d="m72.006 220.924c-9.254 0-16.756 7.502-16.756 16.756v37.701c0 9.254 7.502 16.756 16.756 16.756 9.254 0 16.756-7.502 16.756-16.756v-37.701c0-9.254-7.502-16.756-16.756-16.756z" fill="#86f1a7"/><path d="m128.386 220.924c-9.254 0-16.756 7.502-16.756 16.756v37.701c0 9.254 7.502 16.756 16.756 16.756 9.254 0 16.756-7.502 16.756-16.756v-37.701c0-9.254-7.502-16.756-16.756-16.756z" fill="#dd636e"/><path d="m184.766 220.924c-9.254 0-16.756 7.502-16.756 16.756v37.701c0 9.254 7.502 16.756 16.756 16.756 9.254 0 16.756-7.502 16.756-16.756v-37.701c0-9.254-7.502-16.756-16.756-16.756z" fill="#86f1a7"/></g></g><g><g><path d="m72.006 377.954c-9.254 0-16.756 7.502-16.756 16.756v37.701c0 9.254 7.502 16.756 16.756 16.756 9.254 0 16.756-7.502 16.756-16.756v-37.701c0-9.254-7.502-16.756-16.756-16.756z" fill="#86f1a7"/><path d="m128.386 377.954c-9.254 0-16.756 7.502-16.756 16.756v37.701c0 9.254 7.502 16.756 16.756 16.756 9.254 0 16.756-7.502 16.756-16.756v-37.701c0-9.254-7.502-16.756-16.756-16.756z" fill="#86f1a7"/><path d="m184.766 377.954c-9.254 0-16.756 7.502-16.756 16.756v37.701c0 9.254 7.502 16.756 16.756 16.756 9.254 0 16.756-7.502 16.756-16.756v-37.701c0-9.254-7.502-16.756-16.756-16.756z" fill="#dd636e"/></g></g></g><g><path d="m510.003 163.778c-3.611-8.697-7.476-17.408-11.486-25.89-1.771-3.744-6.243-5.344-9.986-3.574-3.744 1.771-5.345 6.242-3.574 9.986 3.908 8.265 7.675 16.754 11.194 25.233 1.283 3.085 1.023 6.497-.711 9.361-1.738 2.871-4.65 4.685-7.991 4.979-29.457 2.595-58.896 3.911-87.502 3.911-25.554 0-50.338-1.037-73.661-3.081-3.317-.292-6.213-2.097-7.944-4.951-1.738-2.864-2.002-6.28-.723-9.374 12.622-30.546 28.277-60.85 46.528-90.07 10.884-17.418 22.544-34.234 34.656-49.984 1.991-2.59 4.999-4.076 8.253-4.076 3.255 0 6.263 1.486 8.256 4.078 12.074 15.694 23.674 32.413 34.474 49.69 7.764 12.427 15.14 25.175 21.924 37.887 1.95 3.654 6.494 5.035 10.148 3.086 3.654-1.95 5.036-6.493 3.086-10.148-6.944-13.012-14.493-26.057-22.438-38.775-11.058-17.689-22.937-34.81-35.304-50.885-4.854-6.313-12.196-9.934-20.146-9.934-7.732 0-14.884 3.434-19.735 9.43-114.867-11.526-231.275-11.096-346.072 1.3-17.226 1.864-30.828 15.683-32.344 32.854-11.874 133.832-11.874 269.554 0 403.393 1.517 17.175 15.12 30.994 32.353 32.858l.206.022c1.625.174 3.251.348 4.877.512.257.026.512.039.764.039 3.803 0 7.062-2.881 7.453-6.746.417-4.122-2.586-7.8-6.708-8.217-1.597-.162-3.194-.333-4.791-.503l-.197-.021c-10.129-1.096-18.127-9.197-19.016-19.266-3.205-36.132-5.532-72.401-6.996-108.734 67.612 2.563 135.657 3.859 203.707 3.859s136.095-1.296 203.702-3.859c-1.469 36.332-3.794 72.636-6.995 108.737-.89 10.065-8.887 18.167-19.015 19.263-106.439 11.488-214.322 12.624-320.655 3.375-4.129-.362-7.763 2.695-8.122 6.822s2.695 7.763 6.822 8.122c47.821 4.16 95.941 6.239 144.116 6.238 59.918 0 119.914-3.217 179.451-9.643 17.225-1.865 30.827-15.683 32.344-32.854 7.543-85.061 10.31-171.246 8.262-256.3 16.01-.659 32.149-1.689 48.295-3.112 8.154-.717 15.264-5.146 19.506-12.151 4.24-7 4.872-15.343 1.735-22.887zm-486.156-107.625c.888-10.066 8.885-18.167 19.014-19.263 110.76-11.96 223.034-12.682 333.941-2.169-8.793 12.106-17.297 24.709-25.377 37.639-18.1 28.978-33.704 59.013-46.423 89.318-95.631-1.507-192.495-.427-288.151 3.208 1.463-36.332 3.79-72.602 6.996-108.733zm400.971 276.984c-135.578 5.168-272.937 5.168-408.526 0-1.717-51.039-1.717-102.181 0-153.219 94.805-3.623 190.81-4.727 285.618-3.284.343 3.788 1.546 7.503 3.607 10.898 4.236 6.981 11.325 11.396 19.454 12.112 23.762 2.083 48.986 3.139 74.976 3.139 8.444 0 16.965-.126 25.531-.351 1.04 43.374.818 87.041-.66 130.705z"/><path d="m414.557 65.222c0-4.142-3.357-7.5-7.5-7.5s-7.5 3.358-7.5 7.5v57.255c0 4.142 3.357 7.5 7.5 7.5s7.5-3.358 7.5-7.5z"/><path d="m407.057 149.407c-4.143 0-7.5 3.358-7.5 7.5v.661c0 4.142 3.357 7.5 7.5 7.5s7.5-3.358 7.5-7.5v-.661c0-4.142-3.357-7.5-7.5-7.5z"/><path d="m72.006 136.21c13.375 0 24.256-10.881 24.256-24.256v-37.7c0-13.375-10.881-24.256-24.256-24.256s-24.256 10.881-24.256 24.256v37.701c0 13.374 10.882 24.255 24.256 24.255zm-9.256-61.956c0-5.104 4.152-9.256 9.256-9.256s9.256 4.152 9.256 9.256v37.701c0 5.104-4.152 9.256-9.256 9.256s-9.256-4.152-9.256-9.256z"/><path d="m128.386 136.21c13.375 0 24.256-10.881 24.256-24.256v-37.7c0-13.375-10.881-24.256-24.256-24.256s-24.256 10.881-24.256 24.256v37.701c0 13.374 10.882 24.255 24.256 24.255zm-9.256-61.956c0-5.104 4.152-9.256 9.256-9.256s9.256 4.152 9.256 9.256v37.701c0 5.104-4.152 9.256-9.256 9.256s-9.256-4.152-9.256-9.256z"/><path d="m184.766 136.21c13.375 0 24.256-10.881 24.256-24.256v-37.7c0-13.375-10.881-24.256-24.256-24.256s-24.256 10.881-24.256 24.256v37.701c0 13.374 10.881 24.255 24.256 24.255zm-9.256-61.956c0-5.104 4.152-9.256 9.256-9.256s9.256 4.152 9.256 9.256v37.701c0 5.104-4.152 9.256-9.256 9.256s-9.256-4.152-9.256-9.256z"/><path d="m72.006 213.424c-13.375 0-24.256 10.881-24.256 24.256v37.701c0 13.375 10.881 24.256 24.256 24.256s24.256-10.881 24.256-24.256v-37.701c0-13.374-10.881-24.256-24.256-24.256zm9.256 61.957c0 5.104-4.152 9.256-9.256 9.256s-9.256-4.152-9.256-9.256v-37.701c0-5.104 4.152-9.256 9.256-9.256s9.256 4.152 9.256 9.256z"/><path d="m128.386 213.424c-13.375 0-24.256 10.881-24.256 24.256v37.701c0 13.375 10.881 24.256 24.256 24.256s24.256-10.881 24.256-24.256v-37.701c0-13.374-10.881-24.256-24.256-24.256zm9.256 61.957c0 5.104-4.152 9.256-9.256 9.256s-9.256-4.152-9.256-9.256v-37.701c0-5.104 4.152-9.256 9.256-9.256s9.256 4.152 9.256 9.256z"/><path d="m184.766 213.424c-13.375 0-24.256 10.881-24.256 24.256v37.701c0 13.375 10.881 24.256 24.256 24.256s24.256-10.881 24.256-24.256v-37.701c0-13.374-10.881-24.256-24.256-24.256zm9.256 61.957c0 5.104-4.152 9.256-9.256 9.256s-9.256-4.152-9.256-9.256v-37.701c0-5.104 4.152-9.256 9.256-9.256s9.256 4.152 9.256 9.256z"/><path d="m96.262 432.411v-37.701c0-13.375-10.881-24.256-24.256-24.256s-24.256 10.882-24.256 24.256v37.701c0 13.375 10.881 24.256 24.256 24.256s24.256-10.881 24.256-24.256zm-33.512 0v-37.701c0-5.104 4.152-9.256 9.256-9.256s9.256 4.152 9.256 9.256v37.701c0 5.104-4.152 9.256-9.256 9.256s-9.256-4.152-9.256-9.256z"/><path d="m152.642 432.411v-37.701c0-13.375-10.881-24.256-24.256-24.256s-24.256 10.881-24.256 24.256v37.701c0 13.375 10.881 24.256 24.256 24.256s24.256-10.881 24.256-24.256zm-33.512 0v-37.701c0-5.104 4.152-9.256 9.256-9.256s9.256 4.152 9.256 9.256v37.701c0 5.104-4.152 9.256-9.256 9.256s-9.256-4.152-9.256-9.256z"/><path d="m209.022 432.411v-37.701c0-13.375-10.881-24.256-24.256-24.256s-24.256 10.881-24.256 24.256v37.701c0 13.375 10.881 24.256 24.256 24.256s24.256-10.881 24.256-24.256zm-33.512 0v-37.701c0-5.104 4.152-9.256 9.256-9.256s9.256 4.152 9.256 9.256v37.701c0 5.104-4.152 9.256-9.256 9.256s-9.256-4.152-9.256-9.256z"/></g></g></svg>